<svg xmlns="http://www.w3.org/2000/svg" viewBox="0 0 512 512">
  <defs>
    <linearGradient id="bg" x1="0%" y1="0%" x2="100%" y2="100%">
      <stop offset="0%" style="stop-color:#FCD34D"/>
      <stop offset="100%" style="stop-color:#F59E0B"/>
    </linearGradient>
  </defs>
  <!-- Background -->
  <rect width="512" height="512" rx="64" fill="url(#bg)"/>
  <!-- Chemistry/Test Icon -->
  <g transform="translate(128, 80)">
    <!-- Flask body -->
    <path d="M80 0 L80 120 L20 260 Q0 300 40 320 L216 320 Q256 300 236 260 L176 120 L176 0 Z"
          fill="white" stroke="#4A4A4A" stroke-width="12" stroke-linejoin="round"/>
    <!-- Flask neck -->
    <rect x="70" y="0" width="116" height="30" rx="8" fill="white" stroke="#4A4A4A" stroke-width="10"/>
    <!-- Liquid -->
    <path d="M50 220 Q128 180 206 220 L236 260 Q256 300 216 320 L40 320 Q0 300 20 260 Z"
          fill="#EC4899" opacity="0.8"/>
    <!-- Bubbles -->
    <circle cx="80" cy="260" r="15" fill="white" opacity="0.6"/>
    <circle cx="150" cy="240" r="20" fill="white" opacity="0.5"/>
    <circle cx="180" cy="280" r="12" fill="white" opacity="0.7"/>
  </g>
  <!-- Sparkles -->
  <circle cx="120" cy="140" r="12" fill="white"/>
  <circle cx="400" cy="100" r="10" fill="white"/>
  <circle cx="420" cy="380" r="8" fill="white"/>
</svg>
